<svg width="28" height="26" viewBox="0 0 28 26" fill="none" xmlns="http://www.w3.org/2000/svg">
<path fill-rule="evenodd" clip-rule="evenodd" d="M1.8125 0.8125C1.29473 0.8125 0.875 1.23223 0.875 1.75C0.875 2.26777 1.29473 2.6875 1.8125 2.6875H2.75V15.8125C2.75 17.8836 4.42893 19.5625 6.5 19.5625H8.01179L6.54811 23.9535C6.38438 24.4447 6.64984 24.9757 7.14104 25.1394C7.63223 25.3031 8.16316 25.0377 8.32689 24.5465L8.73821 23.3125H19.2618L19.6731 24.5465C19.8368 25.0377 20.3678 25.3031 20.859 25.1394C21.3502 24.9757 21.6156 24.4447 21.4519 23.9535L19.9882 19.5625H21.5C23.5711 19.5625 25.25 17.8836 25.25 15.8125V2.6875H26.1875C26.7053 2.6875 27.125 2.26777 27.125 1.75C27.125 1.23223 26.7053 0.8125 26.1875 0.8125H1.8125ZM9.36321 21.4375L9.98821 19.5625H18.0118L18.6368 21.4375H9.36321ZM18.6875 6.4375C18.6875 5.91973 18.2678 5.5 17.75 5.5C17.2322 5.5 16.8125 5.91973 16.8125 6.4375V13.9375C16.8125 14.4553 17.2322 14.875 17.75 14.875C18.2678 14.875 18.6875 14.4553 18.6875 13.9375V6.4375ZM14.9375 9.25C14.9375 8.73223 14.5178 8.3125 14 8.3125C13.4822 8.3125 13.0625 8.73223 13.0625 9.25V13.9375C13.0625 14.4553 13.4822 14.875 14 14.875C14.5178 14.875 14.9375 14.4553 14.9375 13.9375V9.25ZM11.1875 12.0625C11.1875 11.5447 10.7678 11.125 10.25 11.125C9.73223 11.125 9.3125 11.5447 9.3125 12.0625V13.9375C9.3125 14.4553 9.73223 14.875 10.25 14.875C10.7678 14.875 11.1875 14.4553 11.1875 13.9375V12.0625Z" fill="#CAFF33"/>
</svg>
