<svg width="30" height="26" viewBox="0 0 30 26" fill="none" xmlns="http://www.w3.org/2000/svg">
<path fill-rule="evenodd" clip-rule="evenodd" d="M0.125 9.92913V12.4688C0.125 13.9358 1.31424 15.125 2.78125 15.125H27.2188C28.6858 15.125 29.875 13.9358 29.875 12.4688V9.92913C29.875 8.91461 29.5121 7.93355 28.8518 7.16327L24.1983 1.73414C23.3909 0.792141 22.2121 0.25 20.9715 0.25H9.02854C7.78786 0.25 6.60913 0.792141 5.8017 1.73414L1.14816 7.16327C0.487917 7.93355 0.125 8.91461 0.125 9.92913ZM9.02854 2.375C8.4082 2.375 7.81883 2.64607 7.41512 3.11707L3.49761 7.6875H7.9816C9.4026 7.6875 10.7296 8.39768 11.5178 9.58002L11.7503 9.92874C12.1444 10.5199 12.8079 10.875 13.5184 10.875H16.4816C17.1921 10.875 17.8556 10.5199 18.2497 9.92874L18.4822 9.58002C19.2704 8.39768 20.5974 7.6875 22.0184 7.6875H26.5024L22.5849 3.11707C22.1812 2.64607 21.5918 2.375 20.9715 2.375H9.02854Z" fill="#CAFF33"/>
<path d="M1.98438 17.25C0.957471 17.25 0.125 18.0825 0.125 19.1094V21.5C0.125 23.8472 2.02779 25.75 4.375 25.75H25.625C27.9722 25.75 29.875 23.8472 29.875 21.5V19.1094C29.875 18.0825 29.0425 17.25 28.0156 17.25H22.0184C20.5974 17.25 19.2704 17.9602 18.4822 19.1425L18.2497 19.4912C17.8556 20.0824 17.1921 20.4375 16.4816 20.4375H13.5184C12.8079 20.4375 12.1444 20.0824 11.7503 19.4912L11.5178 19.1425C10.7296 17.9602 9.4026 17.25 7.9816 17.25H1.98438Z" fill="#CAFF33"/>
</svg>
