<svg width="24" height="28" viewBox="0 0 24 28" fill="none" xmlns="http://www.w3.org/2000/svg">
<path d="M23.0533 21.4311C22.6374 22.3919 22.1451 23.2763 21.5748 24.0893C20.7973 25.1978 20.1608 25.9651 19.6702 26.3911C18.9097 27.0905 18.095 27.4487 17.2225 27.469C16.5961 27.469 15.8407 27.2908 14.9614 26.9292C14.0792 26.5694 13.2685 26.3911 12.5272 26.3911C11.7498 26.3911 10.916 26.5694 10.0241 26.9292C9.13092 27.2908 8.41136 27.4792 7.86121 27.4979C7.02452 27.5335 6.19055 27.1652 5.35811 26.3911C4.8268 25.9277 4.16224 25.1333 3.36612 24.0079C2.51195 22.8061 1.80971 21.4124 1.25955 19.8236C0.670361 18.1074 0.375 16.4456 0.375 14.8367C0.375 12.9938 0.773228 11.4043 1.57087 10.0722C2.19775 9.00232 3.03172 8.15833 4.0755 7.53875C5.11928 6.91917 6.24708 6.60344 7.46162 6.58324C8.12619 6.58324 8.99767 6.78881 10.0807 7.19281C11.1606 7.59817 11.854 7.80373 12.158 7.80373C12.3853 7.80373 13.1556 7.56337 14.4615 7.08417C15.6964 6.63977 16.7387 6.45576 17.5925 6.52824C19.9062 6.71497 21.6444 7.62702 22.8004 9.27018C20.7311 10.5239 19.7076 12.28 19.7279 14.5327C19.7466 16.2874 20.3832 17.7476 21.6342 18.9069C22.2011 19.445 22.8343 19.8609 23.5388 20.1563C23.386 20.5993 23.2247 21.0237 23.0533 21.4311ZM17.747 0.550401C17.747 1.92571 17.2445 3.20984 16.243 4.39842C15.0344 5.8114 13.5725 6.62789 11.9873 6.49905C11.9671 6.33405 11.9554 6.1604 11.9554 5.97792C11.9554 4.65762 12.5301 3.24464 13.5508 2.08933C14.0604 1.50438 14.7085 1.01801 15.4944 0.630012C16.2787 0.247807 17.0205 0.0364399 17.7181 0.000244141C17.7385 0.184102 17.747 0.367972 17.747 0.550383V0.550401Z" fill="#CAFF33"/>
</svg>
