<svg width="24" height="24" viewBox="0 0 24 24" fill="none" xmlns="http://www.w3.org/2000/svg">
<path fill-rule="evenodd" clip-rule="evenodd" d="M6.75 4.125C6.75 2.192 8.317 0.625 10.25 0.625H13.75C15.683 0.625 17.25 2.192 17.25 4.125V4.36414C18.3379 4.46373 19.417 4.59396 20.4864 4.75397C22.1828 5.00779 23.375 6.48357 23.375 8.15664V11.6954C23.375 13.1084 22.5191 14.4398 21.116 14.9063C18.2494 15.8593 15.184 16.375 12 16.375C8.81601 16.375 5.75066 15.8593 2.88398 14.9062C1.48091 14.4398 0.625 13.1083 0.625 11.6953V8.15664C0.625 6.48357 1.81723 5.0078 3.51362 4.75397C4.58304 4.59396 5.66212 4.46373 6.75 4.36414V4.125ZM15.5 4.125V4.23096C14.3423 4.16066 13.1753 4.125 12 4.125C10.8248 4.125 9.65775 4.16066 8.5 4.23096V4.125C8.5 3.1585 9.2835 2.375 10.25 2.375H13.75C14.7165 2.375 15.5 3.1585 15.5 4.125ZM12 13.75C12.4832 13.75 12.875 13.3583 12.875 12.875C12.875 12.3918 12.4832 12 12 12C11.5168 12 11.125 12.3918 11.125 12.875C11.125 13.3583 11.5168 13.75 12 13.75Z" fill="#CAFF33"/>
<path d="M1.5 19.4666V16.2046C1.76021 16.3473 2.0378 16.4691 2.33187 16.5669C5.37435 17.5784 8.62601 18.125 12 18.125C15.374 18.125 18.6257 17.5784 21.6681 16.5669C21.9622 16.4691 22.2398 16.3473 22.5 16.2046V19.4666C22.5 21.1605 21.2782 22.6487 19.5563 22.8773C17.0838 23.2056 14.5615 23.375 12 23.375C9.43855 23.375 6.91621 23.2056 4.44366 22.8773C2.72178 22.6487 1.5 21.1605 1.5 19.4666Z" fill="#CAFF33"/>
</svg>
